<svg width="260" height="189" viewBox="0 0 260 189" fill="none" xmlns="http://www.w3.org/2000/svg">
<path fill-rule="evenodd" clip-rule="evenodd" d="M108.359 23.1302C106.302 19.4219 105.75 14.0625 99.1615 10.3542C96.1406 8.70315 92.5729 7.88023 89.0052 8.43232C89.8281 13.7865 92.4375 18.4584 96.1406 21.8959C100.26 25.7396 105.615 28.0782 111.516 28.2136C114.813 27.8021 117.557 27.25 119.891 26.1511C120.302 25.7396 120.854 25.3282 121.266 24.9167C124.969 21.4844 127.578 16.8125 128.401 11.4532C124.833 10.9011 121.266 11.7292 118.245 13.375C114.125 15.7136 112.068 18.8698 110.557 22.8542C110.417 23.4063 110.005 23.6823 109.458 23.6823C108.911 23.6823 108.495 23.5417 108.224 22.9948L108.359 23.1302Z" fill="#88AC4A"/>
<path fill-rule="evenodd" clip-rule="evenodd" d="M139.521 60.6354C151.875 83.9896 145.151 116.823 123.323 128.776C133.208 130.839 144.875 128.917 155.583 122.734C172.057 113.115 180.979 96.3542 178.234 82.0677C177.958 80.2813 177.411 78.4948 176.724 76.849L181.255 74.2344C185.51 71.7656 181.802 66.4063 178.37 68.4688L177.823 68.7396C175.354 70.1146 172.469 69.8385 170.411 67.9167C170.135 67.6406 170 67.5052 169.724 67.2292C162.172 60.7708 151.052 58.3021 139.385 60.5L139.521 60.6354ZM147.349 113.391C145.151 113.115 144.74 116.552 146.938 116.688C149.13 116.964 149.542 113.526 147.349 113.391ZM154.214 92.6458C156.406 92.9219 156.818 89.4844 154.625 89.349C152.427 89.0729 152.016 92.5104 154.214 92.6458ZM160.802 91.4115C160.526 94.4323 165.057 94.9792 165.469 91.9583C165.745 88.9375 161.214 88.3854 160.802 91.4115ZM157.094 77.9479C156.682 81.5156 162.172 82.2031 162.583 78.4948C162.995 74.9219 157.505 74.2344 157.094 77.9479ZM151.193 102.401C150.781 105.974 156.271 106.656 156.682 102.948C157.094 99.375 151.604 98.6927 151.193 102.401Z" fill="#FFF212"/>
<path fill-rule="evenodd" clip-rule="evenodd" d="M112.068 37.6927C112.068 37.9687 112.203 38.2448 112.203 38.5156V43.0521C112.479 43.0521 112.755 43.1875 113.026 43.1875C113.302 43.1875 113.578 43.3229 113.714 43.3229C113.99 43.3229 114.26 43.4635 114.401 43.4635C114.677 43.4635 114.948 43.599 115.089 43.599C115.635 43.7396 116.047 43.875 116.599 44.0104C130.734 48.4063 141.172 64.7552 141.172 84.2656C141.172 103.359 131.01 119.432 117.281 124.245C115.635 124.792 113.849 125.203 112.068 125.479V131.115C112.068 132.896 110.557 134.411 108.771 134.411C106.99 134.411 105.479 132.896 105.479 131.115V130.427C105.479 127.677 103.693 125.344 101.083 124.516C100.807 124.38 100.536 124.38 100.26 124.245C86.5313 119.432 76.375 103.359 76.375 84.2656C76.375 67.7813 85.0208 48.8229 101.083 44.0104C103.693 43.1875 105.339 41.125 105.479 38.3802C105.479 38.1042 105.479 37.9687 105.615 37.6927H105.479V37.2813C105.479 35.4948 106.99 33.9844 108.771 33.9844C110.557 33.9844 112.068 35.4948 112.068 37.2813V37.6927ZM85.4323 81.7917C84.8854 88.9375 85.9844 96.2188 88.5938 103.224C89.0052 104.458 90.5156 105.146 91.75 104.599C92.1615 104.458 92.4375 104.188 92.7083 103.911C93.2604 103.224 93.5365 102.26 93.1198 101.438C90.7865 95.2552 89.8281 88.6615 90.2396 82.0677C90.651 75.6094 92.5729 69.151 95.8698 63.3854C96.4167 62.4219 96.1406 61.1875 95.3177 60.3594C95.1823 60.224 95.0417 60.224 94.9063 60.0885C93.8073 59.401 92.2969 59.8125 91.6146 61.0469C88.0417 67.5052 85.9844 74.5104 85.4323 81.7917ZM117.693 109.13C116.599 109.406 116.047 110.505 116.323 111.604C116.599 112.703 117.693 113.255 118.792 112.979C119.891 112.703 120.443 111.604 120.167 110.505C119.891 109.406 118.792 108.854 117.693 109.13ZM114.536 53.2188C114.813 54.3177 115.911 54.8646 117.01 54.5885C118.109 54.3177 118.656 53.2187 118.38 52.1198C118.109 51.0208 117.01 50.4687 115.911 50.7448C114.813 51.0208 114.26 52.1198 114.536 53.2188ZM113.026 65.8542C113.438 67.6406 115.224 68.6042 117.01 68.1927C118.792 67.7813 119.755 65.9948 119.344 64.2083C118.932 62.4219 117.146 61.4583 115.359 61.8698C113.578 62.2865 112.615 64.0677 113.026 65.8542ZM103.005 80.5573C104.516 80.1458 105.339 78.6302 104.927 77.2604C104.516 75.75 103.005 74.9219 101.635 75.3333C100.125 75.75 99.3021 77.2604 99.7135 78.6302C100.125 80.1458 101.635 80.9688 103.005 80.5573ZM108.495 88.25C108.224 87.151 107.125 86.599 106.026 86.875C104.927 87.151 104.38 88.25 104.651 89.349C104.927 90.4479 106.026 90.9948 107.125 90.724C108.224 90.4479 108.771 89.349 108.495 88.25ZM116.182 83.3021C117.281 83.0313 117.833 81.9271 117.557 80.8281C117.281 79.7292 116.182 79.1823 115.089 79.4583C113.99 79.7292 113.438 80.8281 113.714 81.9271C113.99 83.0313 115.089 83.5781 116.182 83.3021ZM122.911 79.0469C123.323 80.5573 124.833 81.3802 126.208 80.9688C127.719 80.5573 128.542 79.0469 128.13 77.6719C127.719 76.1615 126.208 75.3333 124.833 75.75C123.323 76.1615 122.5 77.6719 122.911 79.0469ZM117.01 95.1198C117.422 96.9063 119.203 97.8646 120.99 97.4531C122.776 97.0417 123.734 95.2552 123.323 93.4688C122.911 91.6823 121.125 90.724 119.344 91.1354C117.557 91.5469 116.599 93.3333 117.01 95.1198ZM94.7708 56.651C95.1823 58.026 96.6927 58.9844 98.0625 58.5729C99.4375 58.1615 100.396 56.651 99.9844 55.276C99.5729 53.9063 98.0625 52.9427 96.6927 53.3542C95.3177 53.7656 94.3594 55.276 94.7708 56.651Z" fill="#FFF212"/>
<mask id="mask0_101_177" style="mask-type:luminance" maskUnits="userSpaceOnUse" x="70" y="0" width="120" height="139">
<path d="M70 0H190V138.755H70V0Z" fill="white"/>
</mask>
<g mask="url(#mask0_101_177)">
<path fill-rule="evenodd" clip-rule="evenodd" d="M119.422 130.24C131.365 133.807 145.917 132.161 158.958 124.469C176.802 114.161 186.547 96.1667 184.49 80.0937C184.214 78.0312 184.901 76.1094 186.411 74.7344C189.297 72.125 190.12 67.7292 188.057 64.1562C186 60.5833 181.745 59.0729 178.036 60.3125C175.979 60.9948 174.057 60.5833 172.411 59.3489C163.349 52.3437 150.307 50.1458 137.266 53.0312C132.188 45.6094 125.188 40.1146 117.224 37.7812V36.4062C117.224 35.9948 117.224 35.5833 117.089 35.1666C115.302 35.8541 113.656 36.1302 111.87 36.2708C111.87 36.5416 111.87 36.6823 111.87 36.9531C111.87 39.7031 113.656 42.0364 116.26 42.8646C116.401 42.8646 116.672 43 116.813 43C130.677 47.6719 140.974 63.8802 140.974 83.1146C140.974 101.385 131.635 117.047 118.734 122.406C115.167 123.917 112.693 126.802 111.734 130.651C111.458 132.021 110.083 133.12 108.573 133.12C107.063 133.12 105.693 132.021 105.417 130.651C104.458 126.802 101.984 123.917 98.4167 122.406C85.5104 116.911 76.1771 101.385 76.1771 83.1146C76.1771 64.1562 86.0625 48.2187 99.651 43.276C100.063 43.1354 100.474 43 100.885 42.8646C103.495 42.0364 105.281 39.7031 105.281 36.9531C105.281 36.6823 105.281 36.5416 105.281 36.2708C105.281 35.3073 105.693 34.3437 106.38 33.7969C108.302 32.1458 110.906 32.5573 112.969 32.2864C116.672 31.7344 120.104 30.3594 125.047 25.5521C130.266 20.7448 133.557 14.0104 134.109 6.45832L134.245 4.39582L132.188 3.84373C126.422 2.1979 120.656 3.16144 115.849 5.77082C113.656 7.00519 111.594 8.65623 109.948 10.7135C108.026 7.28123 105.141 4.53123 101.849 2.74477C97.0417 -1.74834e-05 91.276 -0.822934 85.5104 0.8229L83.4531 1.37498L83.5885 3.43227C84.1406 10.9896 87.4323 17.7239 92.651 22.5312C94.5729 24.3177 96.7708 25.8281 99.1042 27.0625C99.7917 26.9271 100.474 26.7864 101.161 26.651C102.396 26.2396 105.969 26.2396 109.401 25.5521C109.672 25.5521 109.948 25.4166 110.224 25.4166C110.771 25.276 111.182 25.1406 111.594 25.0052C108.849 24.8646 106.38 24.4531 103.906 23.4896C101.026 22.3906 98.4167 20.7448 96.0833 18.6823C92.375 15.25 89.7656 10.5781 88.9427 5.21873C92.5156 4.67186 96.0833 5.49477 99.1042 7.14582C99.1042 7.14582 99.1042 7.14582 99.2396 7.14582C105.693 10.8541 106.24 16.2083 108.302 19.9219C108.573 20.3333 108.984 20.6094 109.536 20.6094C109.948 20.6094 110.224 20.4687 110.495 20.1927C110.635 20.0573 110.635 19.9219 110.771 19.7812C112.146 15.7969 114.339 12.6406 118.323 10.3021C121.344 8.65623 124.911 7.82811 128.479 8.38019C128.479 8.79165 128.344 9.06769 128.344 9.47915C127.38 14.2864 124.776 18.5469 121.344 21.8437C116.26 26.651 113.38 26.7864 106.927 27.8906C103.495 28.4375 100.75 31.0469 99.9271 34.4844C99.5156 36.5417 98.1406 38.0521 96.2188 38.8802C81.3958 45.0625 70.5469 62.6458 70.5469 83.1146C70.5469 102.896 80.4323 119.797 94.4375 126.667C97.1823 128.042 99.1042 130.099 100.203 132.984C101.438 136.281 104.594 138.62 108.161 138.62C112.417 138.62 115.849 135.458 116.536 131.474C116.672 130.922 116.948 130.51 117.359 130.24C117.771 129.964 118.323 129.823 118.87 130.099L119.422 130.24ZM140.286 57.8385C151.818 55.6406 163.073 58.1094 170.625 64.5677C170.901 64.7083 171.036 64.9792 171.313 65.2552C173.37 67.1771 176.255 67.4531 178.724 66.0781L179 65.9427L179.271 65.8073C180.781 64.9792 182.844 65.3906 183.667 67.0417C184.49 68.5521 184.078 70.6146 182.432 71.4375L182.156 71.5729L181.88 71.7135C179.411 73.0885 178.313 75.8333 178.859 78.4427C178.859 78.7187 179 78.9948 179 79.4062C181.745 93.6927 172.823 110.453 156.349 120.073C147.427 125.292 137.677 127.354 129.031 126.802C128.208 126.802 127.656 126.255 127.38 125.568C127.109 124.88 127.38 124.057 128.068 123.641C139.052 115.536 146.328 100.562 146.328 83.526C146.328 74.0469 144.13 65.3906 140.151 57.9739L140.286 57.8385Z" fill="#618646"/>
</g>
<mask id="mask1_101_177" style="mask-type:luminance" maskUnits="userSpaceOnUse" x="70" y="0" width="120" height="139">
<path d="M70 0H190V138.755H70V0Z" fill="white"/>
</mask>
<g mask="url(#mask1_101_177)">
<path fill-rule="evenodd" clip-rule="evenodd" d="M119.422 130.24C131.365 133.807 145.917 132.161 158.958 124.469C176.802 114.161 186.547 96.1667 184.49 80.0937C184.214 78.0312 184.901 76.1094 186.411 74.7344C189.297 72.125 190.12 67.7292 188.057 64.1562C186 60.5833 181.745 59.0729 178.036 60.3125C175.979 60.9948 174.057 60.5833 172.411 59.3489C163.349 52.3437 150.307 50.1458 137.266 53.0312C132.188 45.6094 125.188 40.1146 117.224 37.7812V36.4062C117.224 35.9948 117.224 35.5833 117.089 35.1666C115.302 35.8541 113.656 36.1302 111.87 36.2708C111.87 36.5416 111.87 36.6823 111.87 36.9531C111.87 39.7031 113.656 42.0364 116.26 42.8646C116.401 42.8646 116.672 43 116.813 43C130.677 47.6719 140.974 63.8802 140.974 83.1146C140.974 101.385 131.635 117.047 118.734 122.406C115.167 123.917 112.693 126.802 111.734 130.651C111.458 132.021 110.083 133.12 108.573 133.12C107.063 133.12 105.693 132.021 105.417 130.651C104.458 126.802 101.984 123.917 98.4167 122.406C85.5104 116.911 76.1771 101.385 76.1771 83.1146C76.1771 64.1562 86.0625 48.2187 99.651 43.276C100.063 43.1354 100.474 43 100.885 42.8646C103.495 42.0364 105.281 39.7031 105.281 36.9531C105.281 36.6823 105.281 36.5416 105.281 36.2708C105.281 35.3073 105.693 34.3437 106.38 33.7969C108.302 32.1458 110.906 32.5573 112.969 32.2864C116.672 31.7344 120.104 30.3594 125.047 25.5521C130.266 20.7448 133.557 14.0104 134.109 6.45832L134.245 4.39582L132.188 3.84373C126.422 2.1979 120.656 3.16144 115.849 5.77082C113.656 7.00519 111.594 8.65623 109.948 10.7135C108.026 7.28123 105.141 4.53123 101.849 2.74477C97.0417 -1.74834e-05 91.276 -0.822934 85.5104 0.8229L83.4531 1.37498L83.5885 3.43227C84.1406 10.9896 87.4323 17.7239 92.651 22.5312C94.5729 24.3177 96.7708 25.8281 99.1042 27.0625C99.7917 26.9271 100.474 26.7864 101.161 26.651C102.396 26.2396 105.969 26.2396 109.401 25.5521C109.672 25.5521 109.948 25.4166 110.224 25.4166C110.771 25.276 111.182 25.1406 111.594 25.0052C108.849 24.8646 106.38 24.4531 103.906 23.4896C101.026 22.3906 98.4167 20.7448 96.0833 18.6823C92.375 15.25 89.7656 10.5781 88.9427 5.21873C92.5156 4.67186 96.0833 5.49477 99.1042 7.14582C99.1042 7.14582 99.1042 7.14582 99.2396 7.14582C105.693 10.8541 106.24 16.2083 108.302 19.9219C108.573 20.3333 108.984 20.6094 109.536 20.6094C109.948 20.6094 110.224 20.4687 110.495 20.1927C110.635 20.0573 110.635 19.9219 110.771 19.7812C112.146 15.7969 114.339 12.6406 118.323 10.3021C121.344 8.65623 124.911 7.82811 128.479 8.38019C128.479 8.79165 128.344 9.06769 128.344 9.47915C127.38 14.2864 124.776 18.5469 121.344 21.8437C116.26 26.651 113.38 26.7864 106.927 27.8906C103.495 28.4375 100.75 31.0469 99.9271 34.4844C99.5156 36.5417 98.1406 38.0521 96.2188 38.8802C81.3958 45.0625 70.5469 62.6458 70.5469 83.1146C70.5469 102.896 80.4323 119.797 94.4375 126.667C97.1823 128.042 99.1042 130.099 100.203 132.984C101.438 136.281 104.594 138.62 108.161 138.62C112.417 138.62 115.849 135.458 116.536 131.474C116.672 130.922 116.948 130.51 117.359 130.24C117.771 129.964 118.323 129.823 118.87 130.099L119.422 130.24ZM140.286 57.8385C151.818 55.6406 163.073 58.1094 170.625 64.5677C170.901 64.7083 171.036 64.9792 171.313 65.2552C173.37 67.1771 176.255 67.4531 178.724 66.0781L179 65.9427L179.271 65.8073C180.781 64.9792 182.844 65.3906 183.667 67.0417C184.49 68.5521 184.078 70.6146 182.432 71.4375L182.156 71.5729L181.88 71.7135C179.411 73.0885 178.313 75.8333 178.859 78.4427C178.859 78.7187 179 78.9948 179 79.4062C181.745 93.6927 172.823 110.453 156.349 120.073C147.427 125.292 137.677 127.354 129.031 126.802C128.208 126.802 127.656 126.255 127.38 125.568C127.109 124.88 127.38 124.057 128.068 123.641C139.052 115.536 146.328 100.562 146.328 83.526C146.328 74.0469 144.13 65.3906 140.151 57.9739L140.286 57.8385Z" fill="#618646"/>
</g>
<path fill-rule="evenodd" clip-rule="evenodd" d="M90.5156 56.9271C90.9271 58.3021 92.4375 59.2604 93.8073 58.849C95.1823 58.4375 96.1406 56.9271 95.7292 55.5521C95.3177 54.1771 93.8073 53.2187 92.4375 53.6302C91.0625 54.0417 90.1042 55.5521 90.5156 56.9271ZM80.9063 81.9271C80.3542 89.0729 81.4531 96.3542 84.0625 103.359C84.474 104.599 85.9844 105.286 87.2188 104.734C87.6302 104.599 87.9063 104.323 88.1823 104.047C88.7292 103.359 89.0052 102.401 88.5938 101.573C86.2604 95.3906 85.2969 88.7969 85.7084 82.2031C86.1198 75.75 88.0417 69.2917 91.3386 63.5208C91.8854 62.5573 91.6146 61.3229 90.7865 60.5C90.6511 60.3594 90.5156 60.3594 90.375 60.224C89.2761 59.5365 87.7656 59.9479 87.0834 61.1875C83.5104 67.6406 81.4531 74.651 80.9063 81.9271Z" fill="#88AC4A"/>
<path fill-rule="evenodd" clip-rule="evenodd" d="M122.089 49.3698C136.365 69.9792 136.5 97.8646 122.5 118.75C131.422 111.193 136.911 98.276 136.911 84.2656C136.911 70.25 131.286 57.0625 122.089 49.3698Z" fill="#D7CF37"/>
<path fill-rule="evenodd" clip-rule="evenodd" d="M173.292 74.9219C174.391 100.75 156.271 124.38 125.38 127.542C133.896 127.953 143.365 125.891 152.151 120.807C168.625 111.193 177.547 94.4323 174.802 80.1458C174.526 78.3594 173.979 76.5729 173.292 74.9219Z" fill="#D7CF37"/>
<path d="M5.60287 173.902C5.64454 173.626 5.66537 173.318 5.66537 172.985V157.381H8.16537L14.7487 167.735V158.235C14.7487 157.777 14.707 157.496 14.6237 157.381H17.9779C17.9362 157.714 17.9154 158.084 17.9154 158.485V173.902H15.332L8.85287 163.943V173.902H5.60287Z" fill="#618646"/>
<path d="M35.1603 157.318C35.6707 157.36 36.103 157.381 36.452 157.381H37.4728C37.8165 157.381 38.1863 157.35 38.577 157.277V167.548C38.577 169.589 37.9572 171.23 36.7228 172.464C35.5561 173.631 34.0874 174.214 32.327 174.214C30.3947 174.214 28.8322 173.714 27.6395 172.714C26.3061 171.589 25.6395 169.964 25.6395 167.839V157.318C26.3322 157.36 26.978 157.381 27.577 157.381C28.1863 157.381 28.6915 157.35 29.0978 157.277V168.006C29.0978 169.048 29.4155 169.86 30.0561 170.443C30.6499 170.975 31.3947 171.235 32.2853 171.235C33.6186 171.235 34.4988 170.558 34.9311 169.193C35.0822 168.709 35.1603 168.105 35.1603 167.381V157.318Z" fill="#618646"/>
<path d="M52.1003 173.985C51.6941 173.928 50.668 173.902 49.017 173.902H48.6212V160.173H46.1628C45.4389 160.173 45.0066 160.209 44.8712 160.277C44.7462 160.35 44.642 160.417 44.5587 160.485L44.5378 160.464V157.277L44.5587 157.256C44.8347 157.339 45.5795 157.381 46.7878 157.381H54.5587C55.2931 157.381 55.7253 157.35 55.8503 157.277C55.9858 157.193 56.0899 157.126 56.1628 157.068L56.2045 157.089V160.256L56.1628 160.298C55.8972 160.214 55.1628 160.173 53.9545 160.173H52.1003V173.985Z" fill="#618646"/>
<path d="M67.6047 167.485C67.3547 167.501 67.0838 167.506 66.7922 167.506C66.5109 167.506 66.1047 167.485 65.563 167.443V173.902H62.2713V157.298C63.4224 157.147 64.8442 157.068 66.5422 157.068C68.8338 157.068 70.5422 157.496 71.6672 158.339C72.8026 159.188 73.3755 160.501 73.3755 162.277C73.3755 163.652 72.8599 164.829 71.8338 165.798C71.4849 166.121 71.0942 166.397 70.6672 166.631L73.188 171.964C73.688 173.063 74.0682 173.714 74.3338 173.923L74.2713 173.985C73.464 173.86 72.1984 173.871 70.4797 174.006L67.6047 167.485ZM66.7713 160.006C66.3547 160.006 65.9484 160.027 65.563 160.068V164.818C65.964 164.876 66.438 164.902 66.9797 164.902C67.5213 164.902 67.9797 164.855 68.3547 164.756C68.7297 164.662 69.0526 164.516 69.3338 164.318C69.9172 163.876 70.2088 163.214 70.2088 162.339C70.2088 161.464 69.9015 160.85 69.2922 160.485C68.7192 160.167 67.8807 160.006 66.7713 160.006Z" fill="#618646"/>
<path d="M80.8501 157.339C81.6834 157.37 82.1834 157.381 82.3501 157.381H83.2459C83.6886 157.381 84.0428 157.35 84.3084 157.277L84.2876 173.902H80.8501V157.339Z" fill="#618646"/>
<path d="M98.3146 173.985C97.9083 173.928 96.8823 173.902 95.2312 173.902H94.8354V160.173H92.3771C91.6531 160.173 91.2208 160.209 91.0854 160.277C90.9604 160.35 90.8562 160.417 90.7729 160.485L90.7521 160.464V157.277L90.7729 157.256C91.0489 157.339 91.7937 157.381 93.0021 157.381H100.773C101.507 157.381 101.94 157.35 102.065 157.277C102.2 157.193 102.304 157.126 102.377 157.068L102.419 157.089V160.256L102.377 160.298C102.111 160.214 101.377 160.173 100.169 160.173H98.3146V173.985Z" fill="#618646"/>
<path d="M108.861 157.339C109.694 157.37 110.194 157.381 110.361 157.381H111.256C111.699 157.381 112.053 157.35 112.319 157.277L112.298 173.902H108.861V157.339Z" fill="#618646"/>
<path d="M121.7 171.943C120.95 171.225 120.356 170.355 119.929 169.339C119.497 168.329 119.283 167.225 119.283 166.027C119.283 164.818 119.481 163.683 119.888 162.61C120.289 161.527 120.867 160.579 121.617 159.756C122.377 158.938 123.289 158.287 124.346 157.798C125.414 157.313 126.617 157.068 127.95 157.068C130.226 157.068 132.148 157.792 133.721 159.235C135.388 160.777 136.221 162.855 136.221 165.464C136.221 168.006 135.356 170.121 133.638 171.798C132.58 172.829 131.325 173.537 129.867 173.923C129.143 174.115 128.294 174.214 127.325 174.214C126.367 174.214 125.377 174.016 124.367 173.631C123.351 173.23 122.461 172.667 121.7 171.943ZM122.721 165.86C122.721 166.626 122.846 167.334 123.096 167.985C123.356 168.626 123.721 169.183 124.179 169.652C125.148 170.626 126.398 171.11 127.929 171.11C129.372 171.11 130.533 170.641 131.408 169.693C132.309 168.735 132.763 167.417 132.763 165.735C132.763 164.167 132.33 162.855 131.471 161.798C130.554 160.673 129.294 160.11 127.7 160.11C126.143 160.11 124.914 160.688 124.013 161.839C123.148 162.897 122.721 164.235 122.721 165.86Z" fill="#618646"/>
<path d="M142.923 173.902C142.965 173.626 142.985 173.318 142.985 172.985V157.381H145.485L152.069 167.735V158.235C152.069 157.777 152.027 157.496 151.944 157.381H155.298C155.256 157.714 155.235 158.084 155.235 158.485V173.902H152.652L146.173 163.943V173.902H142.923Z" fill="#618646"/>
<path d="M183.591 166.756C183.2 166.714 182.695 166.693 182.07 166.693H178.299V173.902H174.903V157.298C175.122 157.313 175.383 157.329 175.674 157.339L176.591 157.36C177.216 157.376 177.867 157.381 178.549 157.381C180.575 157.381 182.518 157.35 184.383 157.277C184.284 158.016 184.237 158.985 184.237 160.193C184.237 160.334 184.247 160.438 184.278 160.506L184.237 160.527C183.805 160.417 183.195 160.36 182.403 160.36H178.299V163.777H181.924C182.841 163.777 183.388 163.751 183.57 163.693L183.591 166.756Z" fill="#618646"/>
<path d="M192.171 174.006C191.462 173.933 190.634 173.902 189.691 173.902H188.691L194.108 158.756C194.343 158.079 194.462 157.683 194.462 157.568C194.462 157.459 194.452 157.391 194.441 157.36L194.462 157.339C195.004 157.37 195.572 157.381 196.171 157.381C196.671 157.381 197.264 157.376 197.962 157.36L197.983 157.381C197.968 157.412 197.962 157.459 197.962 157.527C197.962 157.683 198.077 158.1 198.316 158.777L203.837 173.943C203.671 173.928 203.473 173.923 203.254 173.923C203.254 173.923 203.035 173.912 202.608 173.902C202.4 173.902 202.212 173.902 202.046 173.902H200.129L198.962 170.318H193.337L192.171 174.006ZM197.983 167.339L196.108 161.568L194.296 167.339H197.983Z" fill="#618646"/>
<path d="M216.632 157.068C218.174 157.068 219.492 157.339 220.591 157.881V161.673L220.57 161.714C220.096 160.996 219.117 160.522 217.632 160.298C217.2 160.214 216.643 160.173 215.966 160.173C215.299 160.173 214.638 160.308 213.987 160.568C213.346 160.818 212.82 161.173 212.403 161.631C211.596 162.537 211.195 163.818 211.195 165.485C211.195 167.433 211.705 168.881 212.737 169.839C213.57 170.631 214.685 171.027 216.091 171.027C217.658 171.027 218.929 170.693 219.903 170.027C220.263 169.792 220.57 169.496 220.82 169.131L220.862 169.152V172.631C219.58 173.688 217.872 174.214 215.737 174.214C213.205 174.214 211.226 173.412 209.799 171.798C208.424 170.272 207.737 168.246 207.737 165.714C207.737 163.048 208.492 160.943 210.007 159.402C211.518 157.85 213.726 157.068 216.632 157.068Z" fill="#618646"/>
<path d="M233.337 173.985C232.93 173.928 231.904 173.902 230.253 173.902H229.857V160.173H227.399C226.675 160.173 226.243 160.209 226.107 160.277C225.982 160.35 225.878 160.417 225.795 160.485L225.774 160.464V157.277L225.795 157.256C226.071 157.339 226.816 157.381 228.024 157.381H235.795C236.529 157.381 236.962 157.35 237.087 157.277C237.222 157.193 237.326 157.126 237.399 157.068L237.441 157.089V160.256L237.399 160.298C237.133 160.214 236.399 160.173 235.191 160.173H233.337V173.985Z" fill="#618646"/>
<path d="M253.466 158.298L253.237 161.943L253.153 161.985C252.539 161.058 251.497 160.459 250.028 160.193C249.554 160.1 249.101 160.048 248.674 160.048C248.258 160.048 247.893 160.089 247.591 160.173C247.284 160.246 247.028 160.35 246.82 160.485C246.362 160.792 246.133 161.183 246.133 161.652C246.133 162.277 246.331 162.751 246.737 163.068C247.221 163.459 248.039 163.73 249.195 163.881C250.346 164.037 251.268 164.246 251.966 164.506C252.659 164.772 253.226 165.105 253.674 165.506C254.518 166.272 254.945 167.35 254.945 168.735C254.945 170.558 254.258 171.959 252.883 172.943C251.716 173.792 250.237 174.214 248.445 174.214C246.997 174.214 245.575 173.943 244.174 173.402C243.7 173.209 243.289 172.996 242.945 172.756L243.091 168.61L243.133 168.568C244.159 170.35 245.846 171.235 248.195 171.235C249.862 171.235 250.956 170.834 251.487 170.027C251.679 169.751 251.778 169.443 251.778 169.11C251.778 168.777 251.721 168.501 251.612 168.277C251.497 168.058 251.32 167.871 251.07 167.714C250.596 167.397 249.789 167.188 248.653 167.089C247.513 166.98 246.581 166.777 245.862 166.485C245.153 166.183 244.581 165.808 244.153 165.36C243.372 164.568 242.987 163.464 242.987 162.048C242.987 160.579 243.497 159.381 244.528 158.464C245.581 157.537 246.997 157.068 248.778 157.068C250.57 157.068 252.133 157.48 253.466 158.298Z" fill="#618646"/>
</svg>
